<svg xmlns="http://www.w3.org/2000/svg" viewBox="0 0 756.52 869.17">
    <defs>
        <style>
            .cls-1,
            .cls-11,
            .cls-12,
            .cls-3,
            .cls-5 {
                fill: #fedd13;
            }
            
            .cls-13,
            .cls-15,
            .cls-2,
            .cls-4,
            .cls-7,
            .cls-9 {
                fill: none;
            }
            
            .cls-11,
            .cls-12,
            .cls-13,
            .cls-15,
            .cls-2,
            .cls-3,
            .cls-4,
            .cls-5,
            .cls-7,
            .cls-9 {
                stroke: #3c3c3b;
            }
            
            .cls-10,
            .cls-11,
            .cls-12,
            .cls-13,
            .cls-2,
            .cls-3,
            .cls-4,
            .cls-5,
            .cls-7,
            .cls-9 {
                stroke-miterlimit: 10;
            }
            
            .cls-2 {
                stroke-width: 2px;
            }
            
            .cls-3 {
                stroke-width: 28px;
            }
            
            .cls-4 {
                stroke-width: 3px;
            }
            
            .cls-5 {
                stroke-width: 22px;
            }
            
            .cls-6 {
                fill: #ffe51c;
            }
            
            .cls-12,
            .cls-7 {
                stroke-width: 4px;
            }
            
            .cls-8 {
                fill: #3c3c3b;
            }
            
            .cls-10,
            .cls-11,
            .cls-9 {
                stroke-width: 5px;
            }
            
            .cls-10 {
                fill: #ffdd12;
                stroke: #373736;
            }
            
            .cls-13 {
                stroke-width: 6px;
            }
            
            .cls-14 {
                fill: #373736;
            }
            
            .cls-15 {
                stroke-linejoin: round;
                stroke-width: 14px;
            }
        </style>
    </defs>
    <title>nodeschool spb</title>
    <g id="Background">
        <polygon class="cls-1" points="749.62 220.14 749.59 648.15 378.33 862.17 7.1 648.19 7.12 220.19 376.93 7 749.62 220.14" />
        <path class="cls-2" d="M1278.15,1045.25" transform="translate(-871.33 -763.5)" />
        <path class="cls-3" d="M1304,1124.78" transform="translate(-871.33 -763.5)" />
        <path class="cls-3" d="M1303.19,1125.52" transform="translate(-871.33 -763.5)" />
        <path class="cls-4" d="M1264.82,1115.25" transform="translate(-871.33 -763.5)" />
        <path class="cls-3" d="M1293.63,1106.34" transform="translate(-871.33 -763.5)" />
        <path class="cls-3" d="M1282.16,1151.51" transform="translate(-871.33 -763.5)" />
        <path class="cls-3" d="M1291.91,1145.43" transform="translate(-871.33 -763.5)" />
        <path class="cls-5" d="M1110.38,1282.75" transform="translate(-871.33 -763.5)" />
    </g>
    <g id="Back">
        <path class="cls-6" d="M1249.66,770.55l370.91,212.78c0,93.29-3.38,206.18-3.38,299.47-.13,1.3-.27,2.62-.4,3.92a34.31,34.31,0,0,0-7,.82,35.42,35.42,0,0,0-6,1.92c-4.56,1.94-5,3.34-8.25,4.93-5,2.44-9.73,2-13.75,1.65a26.2,26.2,0,0,1-9.25-2.2c-3.9-1.78-4.19-3.19-8.25-5.2a26.67,26.67,0,0,0-9.75-2.74,27.7,27.7,0,0,0-12.75,2.46c-4.9,2-4.84,3.09-10.5,5.48-3.76,1.59-6.62,2.8-10.5,3-4.9.27-8.67-1.17-12.75-2.74-5.11-2-5.23-3-11-5.21-4.23-1.63-6.49-2.51-9.75-2.74a25.74,25.74,0,0,0-13,2.74c-4.61,2.2-4.34,3.55-8.75,5.48a28.15,28.15,0,0,1-11.5,2.19,31,31,0,0,1-14.75-4.38c-3.22-1.83-4-3-7.25-4.11a26.53,26.53,0,0,0-8.5-1.37,50.41,50.41,0,0,0-6.25.55,37.78,37.78,0,0,0-6.75,1.09c-3,1-3.09,1.94-6.5,3.57-2,.94-4.07,1.44-8.25,2.46-4.81,1.17-7.22,1.76-9.25,1.65-3-.17-5.22-1.09-8.5-2.47-4.76-2-5.5-3.2-9.25-4.93a32.5,32.5,0,0,0-11.75-3c-5.83-.14-7.54,2.49-15.75,5.76-6.79,2.71-14.4,5.73-22.75,4.11-5.24-1-4.08-2.58-15.5-6.58-8-2.79-11.53-3.09-14.75-2.74a35.76,35.76,0,0,0-9,2.47c-5.63,2.09-6.33,3.37-10.5,4.93a31.55,31.55,0,0,1-14,1.92c-4.6-.51-4.83-1.82-14.25-5.48-8.45-3.28-12.67-4.92-16.5-4.39-5,.7-10.52,3.71-13.75,5.48-2.9,1.59-2.58,1.72-4.25,2.47-1.47.66-6.34,2.64-15.5,1.1-4.53-.77-8.11-2.15-15.25-4.94-7.44-2.89-8.12-3.73-11.5-4.11a28,28,0,0,0-12.75,1.92c-6.16,2.12-5.94,4.43-11.5,6.3-4.84,1.64-8.91,1.36-13,1.1a38.14,38.14,0,0,1-13.75-3c-4.92-2.15-5.12-3.6-9.5-4.94a27.33,27.33,0,0,0-10.75-.82c-4.66.36-8.08,1.52-14.75,3.84-7.72,2.67-7.29,3.18-11.75,4.38-5.61,1.53-9.91,2.69-15,1.65-5.64-1.15-5.73-3.66-14.5-6.85-3.84-1.4-6.43-2.34-10-2.47-3.08-.11-5.48.42-15.5,4.11-11.43,4.21-10.85,4.45-13.5,4.93a36.93,36.93,0,0,1-16.75-1.09c-9.3-2.56-9.62-6-18-7.68a38.69,38.69,0,0,0-15.25.28c-4.12.76-8.24,2.34-16.5,5.48-8.1,3.08-8.44,3.59-11,3.83-4.65.44-8.15-.82-14.75-3.28-10-3.73-9.68-5.75-14.75-6s-9.59,1.54-11-.82a4,4,0,0,1-.25-2.74c1-4.67.44-129.85-.35-297.44Z" transform="translate(-871.33 -763.5)" />
    </g>
    <g id="Elements">
        <line class="cls-7" x1="595.55" y1="626.93" x2="708.7" y2="626.93" />
        <line class="cls-7" x1="632.49" y1="613.5" x2="690.86" y2="613.5" />
        <line class="cls-7" x1="649.95" y1="599.29" x2="673.4" y2="599.29" />
        <line class="cls-7" x1="55.37" y1="626.53" x2="171.36" y2="626.53" />
        <line class="cls-7" x1="75.14" y1="613.11" x2="133.5" y2="613.11" />
        <line class="cls-7" x1="92.6" y1="598.89" x2="116.04" y2="598.89" />
        <path class="cls-5" d="M1108.25,1278" transform="translate(-871.33 -763.5)" />
        <ellipse class="cls-8" cx="217.4" cy="730.75" rx="4.22" ry="4.45" />
        <ellipse class="cls-8" cx="527.37" cy="730.72" rx="4.22" ry="4.45" />
        <rect class="cls-8" x="374.8" y="735.17" width="4.26" height="93.18" rx="1.86" ry="1.86" />
        <path class="cls-8" d="M1249.94,1591.24l-.23.2a1.9,1.9,0,0,1-2.74-.41l-64.59-88.53a2.39,2.39,0,0,1,.37-3.22l.23-.19a1.9,1.9,0,0,1,2.75.4l64.58,88.53A2.38,2.38,0,0,1,1249.94,1591.24Z" transform="translate(-871.33 -763.5)" />
        <path class="cls-8" d="M1247.32,1591.39l-.25-.21a2.56,2.56,0,0,1-.36-3.44l65.79-88.22a2,2,0,0,1,2.93-.39l.25.21a2.55,2.55,0,0,1,.37,3.44L1250.26,1591A2,2,0,0,1,1247.32,1591.39Z" transform="translate(-871.33 -763.5)" />
        <path class="cls-8" d="M1246.24,1590.77l-.12-.21a2.46,2.46,0,0,1,.66-3.27L1383.63,1499a2,2,0,0,1,2.79.79l.12.2a2.45,2.45,0,0,1-.66,3.27L1249,1591.55A2,2,0,0,1,1246.24,1590.77Z" transform="translate(-871.33 -763.5)" />
        <path class="cls-8" d="M1250.06,1590.52l-.12.21a2,2,0,0,1-2.8.84l-144.87-88.47a2.47,2.47,0,0,1-.79-3.27l.12-.21a2,2,0,0,1,2.8-.83l144.87,88.46A2.47,2.47,0,0,1,1250.06,1590.52Z" transform="translate(-871.33 -763.5)" />
        <rect class="cls-8" x="1246.13" y="798.08" width="4.26" height="93.22" rx="1.86" ry="1.86" transform="translate(1625.19 925.88) rotate(180)" />
        <path class="cls-8" d="M1246.76,798.69l.24-.19a1.9,1.9,0,0,1,2.75.4l64.58,88.56a2.39,2.39,0,0,1-.37,3.23l-.24.19a1.9,1.9,0,0,1-2.75-.4l-64.59-88.56A2.41,2.41,0,0,1,1246.76,798.69Z" transform="translate(-871.33 -763.5)" />
        <path class="cls-8" d="M1249.46,798.55l.25.2a2.56,2.56,0,0,1,.37,3.45l-65.8,88.26a2,2,0,0,1-2.94.38l-.25-.21a2.55,2.55,0,0,1-.38-3.44l65.81-88.26A2,2,0,0,1,1249.46,798.55Z" transform="translate(-871.33 -763.5)" />
        <path class="cls-8" d="M1250.13,799.19l.12.21a2.47,2.47,0,0,1-.65,3.3L1112.74,891a2,2,0,0,1-2.81-.82l-.12-.21a2.48,2.48,0,0,1,.64-3.3l136.87-88.28A2,2,0,0,1,1250.13,799.19Z" transform="translate(-871.33 -763.5)" />
        <path class="cls-8" d="M1246.32,799.42l.11-.21a2,2,0,0,1,2.81-.85l144.83,88.33a2.48,2.48,0,0,1,.78,3.28l-.12.21a2,2,0,0,1-2.81.85L1247.09,802.7A2.47,2.47,0,0,1,1246.32,799.42Z" transform="translate(-871.33 -763.5)" />
    </g>
    <g id="Bridges">
        <path class="cls-9" d="M1618.68,1254.18a107.49,107.49,0,0,0-73.06,17.57" transform="translate(-871.33 -763.5)" />
        <polyline class="cls-9" points="725.14 477.08 725.14 483.75 725.14 490.42" />
        <line class="cls-9" x1="705.94" y1="477.08" x2="705.94" y2="493.72" />
        <polyline class="cls-9" points="686.74 477.08 686.74 486.67 686.74 493.72 686.74 501.01" />
        <line class="cls-9" x1="571.64" y1="348.26" x2="565.24" y2="354.56" />
        <line class="cls-9" x1="586.1" y1="363.84" x2="579.35" y2="370.84" />
        <line class="cls-9" x1="598.8" y1="379.62" x2="592.89" y2="386.18" />
        <line class="cls-9" x1="611.98" y1="395.19" x2="605.73" y2="402.23" />
        <line class="cls-9" x1="625.2" y1="410.82" x2="620.2" y2="416.64" />
        <line class="cls-9" x1="638.39" y1="426.03" x2="632.33" y2="433.05" />
        <line class="cls-9" x1="646.5" y1="447.63" x2="651.51" y2="441.81" />
        <line class="cls-9" x1="656.82" y1="447.25" x2="563.78" y2="339.18" />
        <path class="cls-10" d="M1615.87,1220.21l-95.44-4.23-90.18-104.46-12.34,14.76c2.74,2.71,6.75,6.8,11.37,12a256,256,0,0,1,47,75.55c3.82,9.7,8,20.65,10.59,35.92a157.48,157.48,0,0,1,1.67,36.76c-.25,3.42-.57,6.29-.84,8.35l-.46,2.9h57.91v-58.38l37,.23,5,0,28.74.18Z" transform="translate(-871.33 -763.5)" />
        <path class="cls-9" d="M1432.3,1113.89" transform="translate(-871.33 -763.5)" />
        <path class="cls-9" d="M876.34,1254.12a107.4,107.4,0,0,1,73.06,17.59" transform="translate(-871.33 -763.5)" />
        <polyline class="cls-11" points="27.23 477.01 27.23 483.69 27.23 490.36" />
        <line class="cls-11" x1="46.43" y1="477.01" x2="46.43" y2="493.66" />
        <polyline class="cls-11" points="65.64 477.01 65.64 486.61 65.64 493.66 65.64 500.96" />
        <line class="cls-11" x1="180.75" y1="348.1" x2="187.15" y2="354.41" />
        <line class="cls-11" x1="166.29" y1="363.69" x2="173.04" y2="370.7" />
        <line class="cls-11" x1="153.58" y1="379.48" x2="159.5" y2="386.05" />
        <line class="cls-11" x1="140.4" y1="395.07" x2="146.66" y2="402.11" />
        <line class="cls-11" x1="127.18" y1="410.71" x2="132.19" y2="416.53" />
        <line class="cls-11" x1="113.99" y1="425.93" x2="120.05" y2="432.96" />
        <line class="cls-11" x1="100.87" y1="441.72" x2="105.88" y2="447.54" />
        <line class="cls-11" x1="95.56" y1="447.16" x2="188.61" y2="339.02" />
        <path class="cls-11" d="M879.15,1220.13l95.45-4.23,90.19-104.54,12.35,14.77c-2.74,2.71-6.76,6.81-11.38,12a256.15,256.15,0,0,0-47,75.61c-3.82,9.7-8.06,20.66-10.59,35.94a156.54,156.54,0,0,0-1.67,36.78c.25,3.43.57,6.3.83,8.36l.47,2.9H949.91v-58.42l-37,.23-5,0-28.74.18Z" transform="translate(-871.33 -763.5)" />
        <path class="cls-11" d="M1062.74,1113.73" transform="translate(-871.33 -763.5)" />
    </g>
    <g id="Text">
        <path class="cls-12" d="M1094.9,1286.76a34.83,34.83,0,0,1,4.77.15,26.33,26.33,0,0,1,7.16,1.81c4.15,1.62,3.47,2.15,6.76,3.48a34.1,34.1,0,0,0,9.94,2.42,42.89,42.89,0,0,0,12.33-.3,27.63,27.63,0,0,0,5.57-2c2.36-1,2.57-1.28,5.57-2.72,4.07-2,4.9-2.28,6.36-2.57a37.36,37.36,0,0,1,9.94-.3,35.63,35.63,0,0,1,9.15,2c3.38,1.15,2.89,1.61,7.16,3.33,3.66,1.47,5.54,2.21,8.35,2.57a42.34,42.34,0,0,0,10.34-.15,35.18,35.18,0,0,0,7.56-1.66c3.22-1.16,2.47-1.74,6-3.33a26.31,26.31,0,0,1,8-2.42,42.31,42.31,0,0,1,9.94-.15,33.51,33.51,0,0,1,8.75,2.12c3.69,1.33,3.19,1.8,7.16,3.32a30.8,30.8,0,0,0,8.35,2.27,40.13,40.13,0,0,0,9.55,0,29.33,29.33,0,0,0,6.36-1.51c2.86-1,3-1.43,6.37-3,3.61-1.72,5.42-2.57,8.35-3a40.1,40.1,0,0,1,9.54-.15,38.27,38.27,0,0,1,8.36,1.66c3.73,1.27,2.72,1.94,6.36,3.48a35.4,35.4,0,0,0,10.74,2.57,42.17,42.17,0,0,0,10.74-.15,28.37,28.37,0,0,0,7.15-2.42c4.22-1.79,3.94-2.19,7.16-3.33a30.48,30.48,0,0,1,8.75-2,39.28,39.28,0,0,1,8,.3,32.3,32.3,0,0,1,8.35,2.12c3.72,1.5,2.58,2.08,6.36,3.63a27.57,27.57,0,0,0,8.36,2.11,39.67,39.67,0,0,0,7.55,0,32.29,32.29,0,0,0,9.15-2,52.25,52.25,0,0,0,4.77-2.57,20.47,20.47,0,0,1,4.38-2.27,29.58,29.58,0,0,1,8.75-1.06l-.6,0a41.46,41.46,0,0,1,9,.23,26.63,26.63,0,0,1,7.15,2c3.24,1.36,2.62,1.83,6,3.4a23.76,23.76,0,0,0,7.76,2.5,39.25,39.25,0,0,0,9.54,0,33.71,33.71,0,0,0,7.16-1.59c4.57-1.46,4.17-2.2,8.35-3.86a32.66,32.66,0,0,1,11.34-2.72,37.06,37.06,0,0,1,10.74,1.14c3.53.87,3.44,1.49,8.35,3.63s7.22,3.13,11.33,3.62a42.73,42.73,0,0,0,12.53-.45c2.76-.6,2.79-1.11,8.35-3.86,4.27-2.1,6.46-3.16,9-3.62a40.77,40.77,0,0,1,13.72,0c2.36.43,2.82.83,9.55,3.85s7.93,3.4,9.54,3.63a45.4,45.4,0,0,0,13.13-.23,27.74,27.74,0,0,0,7.75-2.72c5.06-2.35,4.79-3.36,8.36-4.31a37.52,37.52,0,0,1,10.73-.9l-.8,37a37.66,37.66,0,0,0-10.74.9c-3.56,1-3.29,2-8.35,4.31a27.77,27.77,0,0,1-7.75,2.73,45.6,45.6,0,0,1-13.13.22c-1.61-.23-2.75-.58-9.54-3.63s-7.19-3.42-9.55-3.85a40.77,40.77,0,0,0-13.72,0c-2.5.46-4.68,1.52-8.95,3.63-5.56,2.74-5.6,3.25-8.35,3.85a43.27,43.27,0,0,1-12.53.46c-4.11-.5-6.52-1.54-11.34-3.63s-4.81-2.76-8.35-3.63a37.43,37.43,0,0,0-10.74-1.14,32.42,32.42,0,0,0-11.33,2.73c-4.18,1.65-3.79,2.4-8.35,3.85a33.86,33.86,0,0,1-7.16,1.59,39.33,39.33,0,0,1-9.55,0,23.46,23.46,0,0,1-7.75-2.5c-3.36-1.57-2.73-2-6-3.4a26.61,26.61,0,0,0-7.16-2,42.12,42.12,0,0,0-8.95-.23l.6,0a29.69,29.69,0,0,0-8.75,1.06c-1.51.48-2.06.94-4.37,2.27a53.75,53.75,0,0,1-4.77,2.57,32.62,32.62,0,0,1-9.15,2,40.68,40.68,0,0,1-7.56,0,27.72,27.72,0,0,1-8.35-2.12c-3.79-1.55-2.64-2.13-6.36-3.63a32.29,32.29,0,0,0-8.36-2.12,39.17,39.17,0,0,0-8-.3,30.35,30.35,0,0,0-8.75,2c-3.22,1.13-2.95,1.53-7.16,3.32a28.56,28.56,0,0,1-7.16,2.42,41.71,41.71,0,0,1-10.74.15,35.3,35.3,0,0,1-10.73-2.57c-3.64-1.53-2.64-2.2-6.37-3.47a37.81,37.81,0,0,0-8.35-1.67,40.18,40.18,0,0,0-9.55.15c-2.92.46-4.73,1.32-8.35,3-3.37,1.59-3.5,2.06-6.36,3a28.89,28.89,0,0,1-6.36,1.51,40.11,40.11,0,0,1-9.55,0,31.08,31.08,0,0,1-8.35-2.26c-4-1.53-3.47-2-7.16-3.33a33.61,33.61,0,0,0-8.75-2.12,42.31,42.31,0,0,0-9.94.15,26.49,26.49,0,0,0-8,2.42c-3.5,1.59-2.75,2.17-6,3.33a35.54,35.54,0,0,1-7.56,1.66,41.83,41.83,0,0,1-10.34.15c-2.81-.35-4.7-1.1-8.35-2.57-4.27-1.71-3.78-2.18-7.16-3.32a36.08,36.08,0,0,0-9.15-2,37.36,37.36,0,0,0-9.94.3c-1.46.29-2.3.62-6.37,2.57-3,1.44-3.2,1.73-5.56,2.73a28.14,28.14,0,0,1-5.57,2,42.89,42.89,0,0,1-12.33.3,34.2,34.2,0,0,1-10-2.42c-3.29-1.33-2.61-1.86-6.76-3.47a25.88,25.88,0,0,0-7.16-1.82,34.79,34.79,0,0,0-4.77-.15l9.43,1.38c-5.6-2.24-12-1.34-17.1-.43-5.11,1.36-8.94,3.18-14.05,5-7.66,2.27-19.16,4.54-26.83,1.82-7.66-3.18-16.61-10.44-30.66-6.36-11.5,3.18-23,10.44-38.33,5.45-6.38-2.27-10.22-5-17.88-6.35-6.39-.91-12.78.45-17.89,2.27-6.38,2.72-12.77,5.89-23,5.89-12.78-.45-16.61-5-25.55-7.71-2.56-.45-6.39-1.36-10-.61l-3.46-36.44c13.85-2.1,21.5,4.48,30.25,6.93,16.38,4.58,26.34-5.13,38.5-7.16,21.28-3.55,28.13,10.86,48.16,8,9.19-1.29,13.17-5.14,21.07-7.07,5.38-1.31,11.94-1.6,17.24-.06,4.54,1.32,6.35,3.39,9.91,5,9.08,4.07,21.84,1.6,29.85-1.51,6.33-2.45,14.7-6.43,25.5-5a33.76,33.76,0,0,1,6.57,1.56" transform="translate(-871.33 -763.5)" />
    </g>
    <g id="Statue">
        <path class="cls-1" d="M1511.21,1477.82c.06.06.1.13.15.19a5.51,5.51,0,0,0-1.27.36,5.38,5.38,0,0,0-1.9-2.27h0a5,5,0,0,0-3.29-1.12,6.4,6.4,0,0,0-1.62.23c-.47-.17-.93-.33-1.4-.48a27.81,27.81,0,0,1-6.42.78c-5.66,1.24-12.51-1.64-18.32-1.74-7.48-.13-15,.17-22.44.1-15.53-.18-31.53-.73-46.88-3.36-3.2-.54-5.57,1.57-6.57,4.18-.15.19-.31.39-.45.6a57.1,57.1,0,0,0-6-.13c-4.35.24-8.69.56-13,.89a267.85,267.85,0,0,1-28.61.8c-9.43-.3-18.85-.4-28.27-.71-8.69-.28-16.94-2.87-25.57-3.51h-.66a5,5,0,0,0-4.24-2.13,5.27,5.27,0,0,0-2.71.72,6.07,6.07,0,0,0-1.07-.1c-15.54,0-31.21-.28-46.74.62-15.13.86-30.09,3.09-45.26,3.44-14.78.33-29.56-.3-44.35-.48-10.09-.12-21.68,2.36-31.72-.31a5,5,0,0,0-4.55-2.64c-15,0-30.15-.65-45.15.62s-30.15,3.6-45.33,3.54a5.92,5.92,0,0,0-1.45.19c-7.09-.06-14.09-.13-21.13.86h-.07v0l-1.52.2a5,5,0,0,0-2.11.85,5.37,5.37,0,0,0-1.35.62h-.41a5.21,5.21,0,0,0-1.89,0h-.09a16.15,16.15,0,0,0-3.78.63,4.58,4.58,0,0,0-1.38.64,1.45,1.45,0,0,1,.62-2c16-7.54,67.41-24.59,81.56-19.81,6.69,2.27,15.69,1.86,18,.28,8.28-5.8,25-15.44,47-22.08a1.39,1.39,0,0,0,.9-.9l3.84-11.4a.25.25,0,0,1,0-.1l1.57-6.14a2.35,2.35,0,0,0,.05-.37v-33.2l0-.34a29.55,29.55,0,0,0-3.22-8.22c-5.22-8.94-26-21-33.43-16.16-6.53,4.24-10.25-4.13-11.54-26.8-1-17.29.86-18.65,2.17-43.94a1.4,1.4,0,0,1,.62-1.13c2.64-1.75,12.2-8.27,14.17-9.47,9.23-5.6,17.07-3.76,19.83-4.92,9.89-4.14,13.26,1.09,25.06-1.45a42.19,42.19,0,0,0,17.54-8.63,1.28,1.28,0,0,1,1-.27l80,10a1.26,1.26,0,0,0,.89-.22l12.92,2.74c1.19.71,9.93,2.67,40.18,4.39l10.8,3.3,15.25,8.1h2.46l40,24.7c14.79,14.88,34.24,24.79,46.69,42.16,1.55,8.27,7.78,14,9.32,22.31,2.34,9.1-2.32,19,5.46,25.63,5.44,4.13,10.89,7.43,16.33,11.57,14.79,15.71,28.8,30.58,42.79,47.12C1504.2,1469.54,1508.1,1472.86,1511.21,1477.82Z" transform="translate(-871.33 -763.5)" />
        <path class="cls-1" d="M1216.63,1154.61c-.07-2.2-.68-6.3-4-8.91a9.76,9.76,0,0,0-6.21-2l-.46,0,.1-1-10.37-4.81a1.22,1.22,0,0,1-.44-.31l-5.13-5.72a1.28,1.28,0,0,0-1-.44h-2.06a1.37,1.37,0,0,0-1,.5l-9.68,12.19a1.47,1.47,0,0,0-.31.75l-.77,7.09-3.81,2.61,1.36,2.6,5.08,5.95a1.38,1.38,0,0,1,.35,1l-.24,10.64a1.5,1.5,0,0,1-.48,1.06l-2.43,2.15a1.3,1.3,0,0,1-.86.33h-5.82a1.36,1.36,0,0,1-1.3-1.08L1165,1168c0-.13,0-.24,0-.35v-15.14a1.45,1.45,0,0,0-.13-.59l-1.31-3a1.6,1.6,0,0,1-.07-1l.79-2.9a1.39,1.39,0,0,1,.73-.89,16.57,16.57,0,0,0,1.62-.91c8.56-5.5,11-19.35,11.17-20.25a7.08,7.08,0,0,1,1.09-3.48c2.2-3,7.85-3.56,11.71-1.44,1.87,1,1.82,1.87,3.8,2.89a11.25,11.25,0,0,0,6.73,1,1.36,1.36,0,0,0,1.13-1l6.49-25.64a1.29,1.29,0,0,1,.33-.62c.92-1,1.84-2.09,2.75-3.21a73.65,73.65,0,0,0,13.4-26.81,1.5,1.5,0,0,0,0-.84,42.11,42.11,0,0,0,.59-10.68c-.1-1.31-.25-2.53-.44-3.67a45.73,45.73,0,0,0,10.32,6.91,44.85,44.85,0,0,0,26.18,4l1.32-.08c.08,1.72.19,3.43.32,5.14a28.78,28.78,0,0,0,.08,4.09,6.67,6.67,0,0,0,.31.66c.29,2.85.65,5.7,1.08,8.49l3.18,7.94a62.69,62.69,0,0,1-12.63,5.61c-3.1,1-5.48,1.44-7,3.66-1.77,2.66-1.09,6.12-.69,8.06,2.45,11.9,6,25.13,7,28.56a9.46,9.46,0,0,1-1.16,6.83,8.42,8.42,0,0,1-5.34,3.66c-3.13.68-6.06-.72-7.65-1.47-2.49-1.18-3.39-2.35-4.63-1.94s-2.28,2.3-2.32,3.9c-.1,3.13,3.08,5.4,5.1,6.83a19.34,19.34,0,0,0,9,3.42l-.71,2.86,10.21,2.75,3.25-5.61a33.06,33.06,0,0,1,.24-8.31c.54-3.52,1.38-5.16,2.31-8s3.9-12.15,1.62-21.23c-1-4.06-2.75-6.81-2.32-7.08.7-.45,5.8,7.08,5.8,7.08l1.61.79,1.86.92c1.69.81,4.79,1.18,11-.7,8.17,15.22,19.27,26.81,31.48,38.48a97.08,97.08,0,0,1,26,41.81,9,9,0,0,0-.21,1.77c1.56,5,4.67,9.09,7,14,5.45,14,5.45,28.1,8.55,43,2.34,14.87,7.78,28.93,21,38,.77.82,2.33,3.3,1.55,5-1.55,1.65-3.11,3.3-2.34,5.78.79.83,3.12-.82,3.9,0,2.33,3.31,0,7.45.77,10.75l-40-24.7c-4.79-17.09-6.14-24.58-6-27.48,0-.55.2-2.8-1.09-4a3.47,3.47,0,0,0-3-.86c-3,.57-4.46,6-5.72,11a65,65,0,0,0-1.91,13.3l-10.8-3.3,2.08-10.41v-24.66c-2.27-2.42-5.72-5.76-8.13-11.59-2.3-5.56-1.67-11.56-5.43-14.26l-13.15,2.08-5.22,2.37c-.17,9-.3,15.84-.41,19.92a10.5,10.5,0,0,0,.21,3c.78,3.46,3,3.56,3.75,6.84a9,9,0,0,1-.21,4.76,5.15,5.15,0,0,1-3.13,3c-4.62,1.92-12.52,12.67-10.64,14.57l.1.07-12.92-2.74a1.16,1.16,0,0,0,.24-.2l12.79-14.14a1.45,1.45,0,0,0,.37-1l.25-12.28a1.44,1.44,0,0,0-.54-1.18,30.12,30.12,0,0,1-5.16-5.08c-5.46-6.83-6.62-14.39-7.36-18.79-1.64-9.94-4.08-21.7-7.44-36.52a1.39,1.39,0,0,0-.92-1l-5.37-1.66a1.34,1.34,0,0,1-.69-.51l-12.81-17.86H1230l-.48,4.33a1.51,1.51,0,0,1-.52,1l-4.84,4a1.49,1.49,0,0,0-.49,1.48l.71,3a1.4,1.4,0,0,0,.82,1l6.93,2.85a1.43,1.43,0,0,1,.86,1.33v10.38a1.52,1.52,0,0,1-.3.9l-1.66,2.15a1.29,1.29,0,0,1-1.25.5l-5.24-.92a1.31,1.31,0,0,1-.85-.57l-6-8.75a1.73,1.73,0,0,1-.26-.73l-.74-9.26a1.39,1.39,0,0,0-.33-.81l-3-3.61a1.48,1.48,0,0,1-.23-1.5l2.67-6.7.72-7.74Z" transform="translate(-871.33 -763.5)" />
        <path class="cls-1" d="M1343.94,1170.32c2.34,4.13,6.22,8.27,5.45,14-.78,5-4.67,7.44-7.78,9.92a7.69,7.69,0,0,0-1.35,3.19,97.08,97.08,0,0,0-26-41.81c-12.21-11.67-23.31-23.26-31.48-38.48l.12,0,12.83-6.08,0-.14a15,15,0,0,0,6.61-4.76,17.63,17.63,0,0,0,3.61-11.49c-.11-2-.58-3.28-.74-7.32-.07-1.76,0-3.2,0-4.15v-.16c1.63-.07,3.11-.18,4.41-.3l1.08,0a9.55,9.55,0,0,0-.09,1.55c2.33,12.4,3.12,24,7.79,34.72.77,1.65,2.32,3.31,3.11,5.79,0,.82,0,2.48.77,3.3a122.46,122.46,0,0,0,7,10.75c3.88,4.13,7,9.08,10.89,13.22,1.56,1.66,2.33,4.13,3.89,5.79,2.34,2.48,2.34,5.78-1.56,6.62C1343.16,1166.18,1343.16,1168.66,1343.94,1170.32Z" transform="translate(-871.33 -763.5)" />
        <path class="cls-1" d="M1263.47,1065.47c-.13-1.71-.24-3.42-.32-5.14-.59-12.31-.17-24.85.34-36.85l.39-.76c2.14,2,6,1.59,8.48-.37,3.12-3.31,4.67-8.27-.78-12.39-2.33-1.66.78-5.79,0-9.1,0-.83-.77-.83-.77-1.65.77,0,.77-.83,1.55-.83,1.56-1.65,0-4.13.79-5.79,3.1-3.3,4.65-6.61,7-10.74a17.89,17.89,0,0,1,12.45,5.78c3.89,5,7.78,11.58,6.23,18.19-.78,1.66-3.9,1.66-3.9,3.3a9.19,9.19,0,0,1-4.67,8.28c-.77,0-3.11,0-2.33,1.64.78,7.45,9.34,5.79,14.78,7.45,2.34.82,3.12,4.14,3.9,6.6,4.67,12.41,4.67,25.63,10.11,37.2,2.33,5,0,11.58-5.44,11.58-.39,0-.59.42-.7.93l-1.08,0c-1.3.12-2.78.23-4.41.3a63.73,63.73,0,0,1-26.36-4.7c-7.26-3-12.65-3.88-14.86-8.13C1263.71,1068.65,1263.57,1067.06,1263.47,1065.47Z" transform="translate(-871.33 -763.5)" />
        <path class="cls-1" d="M1282.73,1117.19c-6.23,1.88-9.33,1.51-11,.7l-1.86-.92-1.61-.79s-5.1-7.53-5.8-7.08c-.43.27,1.31,3,2.32,7.08,2.28,9.08-.65,18.2-1.62,21.23s-1.77,4.53-2.31,8a33.06,33.06,0,0,0-.24,8.31l-3.25,5.61-10.21-2.75.71-2.86a19.34,19.34,0,0,1-9-3.42c-2-1.43-5.2-3.7-5.1-6.83,0-1.6,1-3.47,2.32-3.9s2.14.76,4.63,1.94c1.59.75,4.52,2.15,7.65,1.47a8.42,8.42,0,0,0,5.34-3.66,9.46,9.46,0,0,0,1.16-6.83c-.93-3.43-4.5-16.66-7-28.56-.4-1.94-1.08-5.4.69-8.06,1.48-2.22,3.86-2.69,7-3.66a62.69,62.69,0,0,0,12.63-5.61l-3.18-7.94c-.43-2.79-.79-5.64-1.08-8.49,2.21,4.25,7.6,5.16,14.86,8.13a63.73,63.73,0,0,0,26.36,4.7v.16c0,1,0,2.39,0,4.15.16,4,.63,5.31.74,7.32a17.63,17.63,0,0,1-3.61,11.49,15,15,0,0,1-6.61,4.76l0,.14-12.83,6.08Z" transform="translate(-871.33 -763.5)" />
        <path class="cls-1" d="M1214.34,1035.56H1214c0,1.66.78,5,0,5-3.11,1.65-7.78,1.65-11.66.83-1.52-.81-.82-3.19-.86-4.84.13,1,.75-.13,0-.13.8,0,1.83.23,2.19-.3s.13-2.62.18-3.37c-1.79.43-3.54,1.47-5.31,1.8-7.09-.6-3.2-8.87-4-13.83,5.45-5.78,12.45-9.1,17.9-14.88,1.55-1.65,2.33-4.13,3.89-5.79a21.68,21.68,0,0,0,2.33-14c0-.82.78-2.48,1.56-1.65,2.34,2.48.78,7.44,3.11,9.92.76.81,3.07-.8,5.67-.67h.06c-.33-3.44-.92-7.28-.41-10.75.28-1.93.85-2.53,2.17-.81,2.33,3.05,2.41,10.26,5.42,12,8.44,4.81,19.22,6.32,24.37,15.74a14.28,14.28,0,0,0,3.5,4.42c1.06.86,4.22,1.82,2.55,3.14s-5-.36-6.73-.95c1.16,1.43,2.17,2.41,2.64,4.21a4.53,4.53,0,0,0,1.29,2.17l-.39.76c-.51,12-.93,24.54-.34,36.85l-1.32.08a44.85,44.85,0,0,1-26.18-4,45.73,45.73,0,0,1-10.32-6.91,2,2,0,0,0,0-.24h-.24c-1.21-1.09-2.31-2.19-3.32-3.28,4.4-1.19,2.69-5.55,3.5-9a1.32,1.32,0,0,0,.22-.76C1221.9,1034.79,1218.13,1035.53,1214.34,1035.56Z" transform="translate(-871.33 -763.5)" />
        <path class="cls-1" d="M1225.77,1053.14a42.11,42.11,0,0,1-.59,10.68,1.35,1.35,0,0,0-1.28-1h-12.65a1.32,1.32,0,0,1-1.19-.79l-1.43-3a1.35,1.35,0,0,0-1.21-.79h-7.28a1.27,1.27,0,0,0-.62.16c-.86.48-3.44,1.86-4.34,1.86h-13.11a1.36,1.36,0,0,1-1.26-.93,1.47,1.47,0,0,1,.91-1.87l16.53-5.53a1.76,1.76,0,0,1,.4-.06h5.65a1.3,1.3,0,0,0,.76-.25l2.85-2.09a1.19,1.19,0,0,1,.76-.26h16.38l.28.24C1225.52,1050.61,1225.67,1051.83,1225.77,1053.14Z" transform="translate(-871.33 -763.5)" />
        <path class="cls-1" d="M1216.63,1154.61h0a.82.82,0,0,0-.79-.93.79.79,0,0,0-.71.43l-5.63,10.6a1.61,1.61,0,0,0-.16.54l-1,9.11c0,.1,0,.2,0,.3l.14,1.63a1.42,1.42,0,0,1-1.19,1.55l-5.86.63a1.28,1.28,0,0,1-1.18-.51l-1.62-2.1a1.33,1.33,0,0,0-1-.53l-8.28-.51a1.31,1.31,0,0,1-.7-.26l-3-2.27a1.5,1.5,0,0,1-.57-1l-.11-1.59a1.39,1.39,0,0,1,1.31-1.54l10.81-.25a1.31,1.31,0,0,0,1-.46l6.42-7.36,1.53-16.4.46,0a9.76,9.76,0,0,1,6.21,2C1216,1148.31,1216.56,1152.41,1216.63,1154.61Z" transform="translate(-871.33 -763.5)" />
        <path class="cls-13" d="M1229.08,993.58c-.33-3.44-.92-7.28-.41-10.75.28-1.93.85-2.53,2.17-.81,2.33,3.05,2.41,10.26,5.42,12,8.44,4.81,19.22,6.32,24.37,15.74a14.28,14.28,0,0,0,3.5,4.42c1.06.86,4.22,1.82,2.55,3.14s-5-.36-6.73-.95c1.16,1.43,2.17,2.41,2.64,4.21a4.53,4.53,0,0,0,1.29,2.17c2.14,2,6,1.59,8.48-.37,3.12-3.31,4.67-8.27-.78-12.39-2.33-1.66.78-5.79,0-9.1,0-.83-.77-.83-.77-1.65.77,0,.77-.83,1.55-.83,1.56-1.65,0-4.13.79-5.79,3.1-3.3,4.65-6.61,7-10.74a17.89,17.89,0,0,1,12.45,5.78c3.89,5,7.78,11.58,6.23,18.19-.78,1.66-3.9,1.66-3.9,3.3a9.19,9.19,0,0,1-4.67,8.28c-.77,0-3.11,0-2.33,1.64.78,7.45,9.34,5.79,14.78,7.45,2.34.82,3.12,4.14,3.9,6.6,4.67,12.41,4.67,25.63,10.11,37.2,2.33,5,0,11.58-5.44,11.58-.39,0-.59.42-.7.93a9.55,9.55,0,0,0-.09,1.55c2.33,12.4,3.12,24,7.79,34.72.77,1.65,2.32,3.31,3.11,5.79,0,.82,0,2.48.77,3.3a122.46,122.46,0,0,0,7,10.75c3.88,4.13,7,9.08,10.89,13.22,1.56,1.66,2.33,4.13,3.89,5.79,2.34,2.48,2.34,5.78-1.56,6.62.78,1.64.78,4.12,1.56,5.78,2.34,4.13,6.22,8.27,5.45,14-.78,5-4.67,7.44-7.78,9.92a7.69,7.69,0,0,0-1.35,3.19,9,9,0,0,0-.21,1.77c1.56,5,4.67,9.09,7,14,5.45,14,5.45,28.1,8.55,43,2.34,14.87,7.78,28.93,21,38,.77.82,2.33,3.3,1.55,5-1.55,1.65-3.11,3.3-2.34,5.78.79.83,3.12-.82,3.9,0,2.33,3.31,0,7.45.77,10.75,14.79,14.88,34.24,24.79,46.69,42.16,1.55,8.27,7.78,14,9.32,22.31,2.34,9.1-2.32,19,5.46,25.63,5.44,4.13,10.89,7.43,16.33,11.57,14.79,15.71,28.8,30.58,42.79,47.12,3.11,5,7,8.27,10.12,13.23.06.06.1.13.15.19" transform="translate(-871.33 -763.5)" />
        <path class="cls-13" d="M1201.48,1036.4c.8,0,1.83.23,2.19-.3s.13-2.62.18-3.37c-1.79.43-3.54,1.47-5.31,1.8-7.09-.6-3.2-8.87-4-13.83,5.45-5.78,12.45-9.1,17.9-14.88,1.55-1.65,2.33-4.13,3.89-5.79a21.68,21.68,0,0,0,2.33-14c0-.82.78-2.48,1.56-1.65,2.34,2.48.78,7.44,3.11,9.92.76.81,3.07-.8,5.67-.67h.06c-.32-3.38-1.12,0-.06,0" transform="translate(-871.33 -763.5)" />
        <path class="cls-13" d="M1221.73,1046c4.4-1.19,2.69-5.55,3.5-9a6.61,6.61,0,0,1,.22-.76c-1.89-.14-.75,1.45-.22.76a1.32,1.32,0,0,0,.22-.76c-3.55-1.42-7.32-.68-11.11-.65H1214c0,1.66.78,5,0,5-3.11,1.65-7.78,1.65-11.66.83-1.52-.81-.82-3.19-.86-4.84,0,0,0-.08,0-.13.76,0,.14,1.12,0,.13" transform="translate(-871.33 -763.5)" />
        <path class="cls-13" d="M992.38,1479.88a1.45,1.45,0,0,1,.62-2c16-7.54,67.41-24.59,81.56-19.81,6.69,2.27,15.69,1.86,18,.28,8.28-5.8,25-15.44,47-22.08a1.39,1.39,0,0,0,.9-.9l3.84-11.4a.25.25,0,0,1,0-.1l1.57-6.14a2.35,2.35,0,0,0,.05-.37v-33.2l0-.34a29.55,29.55,0,0,0-3.22-8.22c-5.22-8.94-26-21-33.43-16.16-6.53,4.24-10.25-4.13-11.54-26.8-1-17.29.86-18.65,2.17-43.94a1.4,1.4,0,0,1,.62-1.13c2.64-1.75,12.2-8.27,14.17-9.47,9.23-5.6,17.07-3.76,19.83-4.92,9.89-4.14,13.26,1.09,25.06-1.45a42.19,42.19,0,0,0,17.54-8.63,1.28,1.28,0,0,1,1-.27l80,10a1.26,1.26,0,0,0,.89-.22,1.16,1.16,0,0,0,.24-.2l12.79-14.14a1.45,1.45,0,0,0,.37-1l.25-12.28a1.44,1.44,0,0,0-.54-1.18,30.12,30.12,0,0,1-5.16-5.08c-5.46-6.83-6.62-14.39-7.36-18.79-1.64-9.94-4.08-21.7-7.44-36.52a1.39,1.39,0,0,0-.92-1l-5.37-1.66a1.34,1.34,0,0,1-.69-.51l-12.81-17.86H1230l-.48,4.33a1.51,1.51,0,0,1-.52,1l-4.84,4a1.49,1.49,0,0,0-.49,1.48l.71,3a1.4,1.4,0,0,0,.82,1l6.93,2.85a1.43,1.43,0,0,1,.86,1.33v10.38a1.52,1.52,0,0,1-.3.9l-1.66,2.15a1.29,1.29,0,0,1-1.25.5l-5.24-.92a1.31,1.31,0,0,1-.85-.57l-6-8.75a1.73,1.73,0,0,1-.26-.73l-.74-9.26a1.39,1.39,0,0,0-.33-.81l-3-3.61a1.48,1.48,0,0,1-.23-1.5l2.67-6.7.72-7.74a.82.82,0,0,0-.79-.93.79.79,0,0,0-.71.43l-5.63,10.6a1.61,1.61,0,0,0-.16.54l-1,9.11c0,.1,0,.2,0,.3l.14,1.63a1.42,1.42,0,0,1-1.19,1.55l-5.86.63a1.28,1.28,0,0,1-1.18-.51l-1.62-2.1a1.33,1.33,0,0,0-1-.53l-8.28-.51a1.31,1.31,0,0,1-.7-.26l-3-2.27a1.5,1.5,0,0,1-.57-1l-.11-1.59a1.39,1.39,0,0,1,1.31-1.54l10.81-.25a1.31,1.31,0,0,0,1-.46l6.42-7.36,1.53-16.4.1-1-10.37-4.81a1.22,1.22,0,0,1-.44-.31l-5.13-5.72a1.28,1.28,0,0,0-1-.44h-2.06a1.37,1.37,0,0,0-1,.5l-9.68,12.19a1.47,1.47,0,0,0-.31.75l-.77,7.09-3.81,2.61,1.36,2.6,5.08,5.95a1.38,1.38,0,0,1,.35,1l-.24,10.64a1.5,1.5,0,0,1-.48,1.06l-2.43,2.15a1.3,1.3,0,0,1-.86.33h-5.82a1.36,1.36,0,0,1-1.3-1.08L1165,1168c0-.13,0-.24,0-.35v-15.14a1.45,1.45,0,0,0-.13-.59l-1.31-3a1.6,1.6,0,0,1-.07-1l.79-2.9a1.39,1.39,0,0,1,.73-.89,16.57,16.57,0,0,0,1.62-.91c8.56-5.5,11-19.35,11.17-20.25a7.08,7.08,0,0,1,1.09-3.48c2.2-3,7.85-3.56,11.71-1.44,1.87,1,1.82,1.87,3.8,2.89a11.25,11.25,0,0,0,6.73,1,1.36,1.36,0,0,0,1.13-1l6.49-25.64a1.29,1.29,0,0,1,.33-.62c.92-1,1.84-2.09,2.75-3.21a73.65,73.65,0,0,0,13.4-26.81,1.5,1.5,0,0,0,0-.84,1.35,1.35,0,0,0-1.28-1h-12.65a1.32,1.32,0,0,1-1.19-.79l-1.43-3a1.35,1.35,0,0,0-1.21-.79h-7.28a1.27,1.27,0,0,0-.62.16c-.86.48-3.44,1.86-4.34,1.86h-13.11a1.36,1.36,0,0,1-1.26-.93,1.47,1.47,0,0,1,.91-1.87l16.53-5.53a1.76,1.76,0,0,1,.4-.06h5.65a1.3,1.3,0,0,0,.76-.25l2.85-2.09a1.19,1.19,0,0,1,.76-.26h17.55" transform="translate(-871.33 -763.5)" />
        <path class="cls-13" d="M1312,1279.7l2.08-10.41v-24.66c-2.27-2.42-5.72-5.76-8.13-11.59-2.3-5.56-1.67-11.56-5.43-14.26l-13.15,2.08-5.22,2.37c-.17,9-.3,15.84-.41,19.92a10.5,10.5,0,0,0,.21,3c.78,3.46,3,3.56,3.75,6.84a9,9,0,0,1-.21,4.76,5.15,5.15,0,0,1-3.13,3c-4.62,1.92-12.52,12.67-10.64,14.57l.1.07C1273,1276,1281.7,1278,1312,1279.7Z" transform="translate(-871.33 -763.5)" />
        <path class="cls-13" d="M1322.75,1283l15.25,8.1h2.46c-4.79-17.09-6.14-24.58-6-27.48,0-.55.2-2.8-1.09-4a3.47,3.47,0,0,0-3-.86c-3,.57-4.46,6-5.72,11A65,65,0,0,0,1322.75,1283Z" transform="translate(-871.33 -763.5)" />
        <path class="cls-13" d="M1263.49,1023.48c-.51,12-.93,24.54-.34,36.85.08,1.72.19,3.43.32,5.14s.24,3.18.39,4.75c.29,2.85.65,5.7,1.08,8.49l3.18,7.94a62.69,62.69,0,0,1-12.63,5.61c-3.1,1-5.48,1.44-7,3.66-1.77,2.66-1.09,6.12-.69,8.06,2.45,11.9,6,25.13,7,28.56a9.46,9.46,0,0,1-1.16,6.83,8.42,8.42,0,0,1-5.34,3.66c-3.13.68-6.06-.72-7.65-1.47-2.49-1.18-3.39-2.35-4.63-1.94s-2.28,2.3-2.32,3.9c-.1,3.13,3.08,5.4,5.1,6.83a19.34,19.34,0,0,0,9,3.42l-.71,2.86,10.21,2.75,3.25-5.61a33.06,33.06,0,0,1,.24-8.31c.54-3.52,1.38-5.16,2.31-8s3.9-12.15,1.62-21.23c-1-4.06-2.75-6.81-2.32-7.08.7-.45,5.8,7.08,5.8,7.08l1.61.79,1.86.92c1.69.81,4.79,1.18,11-.7l.12,0" transform="translate(-871.33 -763.5)" />
        <path class="cls-13" d="M1282,1115.84c.24.45.47.9.73,1.35,8.17,15.22,19.27,26.81,31.48,38.48a97.08,97.08,0,0,1,26,41.81c.2.59.38,1.18.56,1.77" transform="translate(-871.33 -763.5)" />
        <path class="cls-13" d="M1224.38,1045.14a39.82,39.82,0,0,1,.91,4.09,2,2,0,0,1,0,.24c.19,1.14.34,2.36.44,3.67a42.11,42.11,0,0,1-.59,10.68c-.25,1.37-.53,2.56-.8,3.54" transform="translate(-871.33 -763.5)" />
        <path class="cls-13" d="M1258,1272.39l.81.18,12.92,2.74h0" transform="translate(-871.33 -763.5)" />
        <polyline class="cls-13" points="440.62 516.2 451.43 519.5 469.13 527.61 509.18 552.3" />
        <path class="cls-13" d="M1213.93,1034.78l.41.78a50.19,50.19,0,0,0,7.39,10.39c1,1.09,2.11,2.19,3.32,3.28l.28.24a45.73,45.73,0,0,0,10.32,6.91,44.85,44.85,0,0,0,26.18,4" transform="translate(-871.33 -763.5)" />
        <path class="cls-13" d="M1309.49,1082.75c-1.3.12-2.78.23-4.41.3a63.73,63.73,0,0,1-26.36-4.7c-7.26-3-12.65-3.88-14.86-8.13a6.67,6.67,0,0,1-.31-.66,28.78,28.78,0,0,1-.08-4.09c0-1.93.21-3.9.55-4.2,2.18-2,5.78.71,16.07,3.41,10.88,2.87,13.45,1.57,14.7.49,2.06-1.77,2.62-4.68,2.76-6.83" transform="translate(-871.33 -763.5)" />
        <path class="cls-13" d="M1298,1057.35a10.61,10.61,0,0,1-.46,1c-2.8,5.3-3.22-9.11-3.22-9.11l-1.61-4.09" transform="translate(-871.33 -763.5)" />
        <line class="cls-13" x1="411.52" y1="353.65" x2="424.36" y2="347.57" />
        <path class="cls-13" d="M1295.16,1111.11l.48-.18a15,15,0,0,0,6.61-4.76,17.63,17.63,0,0,0,3.61-11.49c-.11-2-.58-3.28-.74-7.32-.07-1.76,0-3.2,0-4.15" transform="translate(-871.33 -763.5)" />
        <path class="cls-13" d="M1206.43,1143.69a9.76,9.76,0,0,1,6.21,2c3.31,2.61,3.92,6.71,4,8.91a10.21,10.21,0,0,1,0,1.52" transform="translate(-871.33 -763.5)" />
        <path class="cls-13" d="M1332.92,1258.8a86.06,86.06,0,0,1,0-17.57,84.35,84.35,0,0,1,5.52-22.45" transform="translate(-871.33 -763.5)" />
        <g id="Слой_11" data-name="Слой 11">
            <path class="cls-14" d="M1114.08,952.61a2.62,2.62,0,0,0,2.63-2.62V937.08L1127.39,951a3.32,3.32,0,0,0,2.78,1.55h.17a2.64,2.64,0,0,0,2.67-2.65V930.71a2.64,2.64,0,0,0-5.27,0v12.43l-10.3-13.43a3.31,3.31,0,0,0-2.77-1.55h-.56a2.65,2.65,0,0,0-2.67,2.66V950A2.63,2.63,0,0,0,1114.08,952.61Z" transform="translate(-871.33 -763.5)" />
            <path class="cls-14" d="M1152.56,952.82c7.49,0,12.94-5.61,12.94-12.47v-.07c0-6.85-5.38-12.39-12.87-12.39s-12.93,5.61-12.93,12.46v.07C1139.7,947.27,1145.08,952.82,1152.56,952.82Zm-7.28-12.54a7.23,7.23,0,0,1,7.28-7.5,7.34,7.34,0,0,1,7.35,7.57v.07a7.23,7.23,0,0,1-7.28,7.51,7.35,7.35,0,0,1-7.35-7.58Z" transform="translate(-871.33 -763.5)" />
            <path class="cls-14" d="M1174.66,952.3h6.79c7.63,0,12.9-5.27,12.9-12v-.07c0-6.78-5.27-12-12.9-12h-6.79a2.63,2.63,0,0,0-2.67,2.65v18.8A2.63,2.63,0,0,0,1174.66,952.3Zm2.67-19.32h4.12a7,7,0,0,1,7.32,7.27v.07c0,4.27-3,7.19-7.32,7.19h-4.12Z" transform="translate(-871.33 -763.5)" />
            <path class="cls-14" d="M1203.12,952.4h13.62a2.35,2.35,0,0,0,2.39-2.34,2.38,2.38,0,0,0-2.39-2.37h-11v-5.07H1215a2.36,2.36,0,0,0,2.39-2.34,2.39,2.39,0,0,0-2.39-2.37h-9.26V933h10.82a2.36,2.36,0,0,0,2.39-2.34,2.39,2.39,0,0,0-2.39-2.38h-13.45a2.63,2.63,0,0,0-2.67,2.65v18.8A2.63,2.63,0,0,0,1203.12,952.4Z" transform="translate(-871.33 -763.5)" />
            <path class="cls-14" d="M1227.41,950a15.72,15.72,0,0,0,9.12,2.89c5.23,0,8.91-2.68,8.91-7.47v-.07c0-4.2-2.77-5.95-7.7-7.23-4.19-1.07-5.23-1.58-5.23-3.17v-.07c0-1.17,1.07-2.1,3.12-2.1a10.15,10.15,0,0,1,5.09,1.62,2.62,2.62,0,0,0,1.36.38,2.45,2.45,0,0,0,2.49-2.44,2.4,2.4,0,0,0-1.18-2.1,14.12,14.12,0,0,0-7.69-2.14c-5,0-8.5,2.89-8.5,7.27v.06c0,4.79,3.16,6.13,8,7.37,4,1,4.88,1.72,4.88,3.07v.07c0,1.41-1.31,2.27-3.5,2.27a10.28,10.28,0,0,1-6.2-2.17,2.59,2.59,0,0,0-1.53-.48,2.46,2.46,0,0,0-1.49,4.44Z" transform="translate(-871.33 -763.5)" />
            <path class="cls-14" d="M1264.43,952.82a12.25,12.25,0,0,0,8.63-3,2.45,2.45,0,0,0-1.59-4.34,2.54,2.54,0,0,0-1.6.58,7.8,7.8,0,0,1-5.27,1.9c-4.16,0-7-3.45-7-7.58v-.07c0-4.13,3-7.5,7-7.5a8,8,0,0,1,5,1.72,2.82,2.82,0,0,0,1.59.52,2.6,2.6,0,0,0,2.64-2.59,2.67,2.67,0,0,0-1-2.1,12.9,12.9,0,0,0-8.11-2.44A12.29,12.29,0,0,0,1252,940.35v.07A12.22,12.22,0,0,0,1264.43,952.82Z" transform="translate(-871.33 -763.5)" />
            <path class="cls-14" d="M1283.75,952.61a2.63,2.63,0,0,0,2.66-2.65v-7.23h9.85V950a2.67,2.67,0,0,0,5.34,0V930.75a2.67,2.67,0,0,0-5.34,0v7.09h-9.85v-7.09a2.67,2.67,0,0,0-5.33,0V950A2.63,2.63,0,0,0,1283.75,952.61Z" transform="translate(-871.33 -763.5)" />
            <path class="cls-14" d="M1320.56,952.71c7.49,0,12.93-5.61,12.93-12.46v-.07c0-6.85-5.37-12.39-12.86-12.39s-12.93,5.61-12.93,12.46v.07C1307.7,947.17,1313.07,952.71,1320.56,952.71Zm-7.28-12.53a7.23,7.23,0,0,1,7.28-7.51,7.35,7.35,0,0,1,7.35,7.58v.07a7.23,7.23,0,0,1-7.28,7.5,7.34,7.34,0,0,1-7.35-7.57Z" transform="translate(-871.33 -763.5)" />
            <path class="cls-14" d="M1352.21,952.92c7.49,0,12.93-5.61,12.93-12.46v-.07c0-6.85-5.38-12.4-12.86-12.4s-12.93,5.62-12.93,12.47v.06C1339.35,947.38,1344.72,952.92,1352.21,952.92Zm-7.28-12.53a7.23,7.23,0,0,1,7.28-7.51,7.35,7.35,0,0,1,7.35,7.58v.06a7.23,7.23,0,0,1-7.28,7.51,7.34,7.34,0,0,1-7.35-7.57Z" transform="translate(-871.33 -763.5)" />
            <path class="cls-14" d="M1373.91,952.1h12.55a2.41,2.41,0,1,0,0-4.82h-9.88V930.44a2.67,2.67,0,0,0-5.34,0v19A2.65,2.65,0,0,0,1373.91,952.1Z" transform="translate(-871.33 -763.5)" />
            <path class="cls-14" d="M1165,1489.15a2.44,2.44,0,0,1-1.82-1.16,2.26,2.26,0,0,1,.9-3.16,2.5,2.5,0,0,1,1.52-.32,10.22,10.22,0,0,0,6.27-1.13c1.83-1,2.52-2.34,1.83-3.49l0-.06c-.66-1.1-1.69-1.27-5.6-.21-4.71,1.27-8,1.65-10.35-2.25l0-.06c-2.13-3.56-.57-7.57,3.59-9.89a14,14,0,0,1,7.5-1.86,2.41,2.41,0,0,1,2,1.16,2.25,2.25,0,0,1-.91,3.16,2.48,2.48,0,0,1-1.31.33,10,10,0,0,0-5.07,1.06c-1.72,1-2.17,2.22-1.6,3.17l0,.06c.77,1.29,1.89,1.22,5.94.13,4.75-1.26,7.94-1.13,10,2.3l0,0c2.34,3.91.56,7.82-3.83,10.26A15.74,15.74,0,0,1,1165,1489.15Z" transform="translate(-871.33 -763.5)" />
            <path class="cls-14" d="M1238.81,1455a2.56,2.56,0,0,1,2.62-2.54h7.14c5.69,0,9.14,3.26,9.14,8v.07c0,5.33-4.3,8.1-9.66,8.1h-4v4.57a2.63,2.63,0,0,1-5.25,0Zm9.41,9.08c2.63,0,4.17-1.52,4.17-3.49v-.07c0-2.27-1.64-3.48-4.27-3.48h-4.06v7Z" transform="translate(-871.33 -763.5)" />
            <path class="cls-14" d="M1324.11,1466a2.43,2.43,0,0,1,3.3-.85l6.75,3.75a7.74,7.74,0,0,1,4,4.4,4.72,4.72,0,0,1-.56,3.85l0,0a5.18,5.18,0,0,1-4.88,2.57c1.72,2,2.34,4,.87,6.5l0,0c-2,3.36-5.85,3.46-10.15,1.07l-7-3.88a2.26,2.26,0,0,1-.88-3.18Zm4.71,9.83c1.85,1,3.36,1.1,4.18-.26l0-.06c.72-1.2.15-2.43-1.62-3.41l-4.13-2.31-2.32,3.89Zm-3.32,8c1.85,1,3.34,1,4.16-.35l0,0c.74-1.23.25-2.52-1.9-3.72L1323,1477l-2.42,4Z" transform="translate(-871.33 -763.5)" />
            <polygon class="cls-14" points="251.72 836.98 251.72 836.98 251.72 836.98 251.72 836.98 251.72 836.98" />
        </g>
        <polygon class="cls-15" points="749.52 220.14 749.49 648.15 378.23 862.17 7 648.19 7.03 220.19 376.83 7 749.52 220.14" />
    </g>
</svg>